<svg width="24" height="16" viewBox="0 0 24 16" fill="none" xmlns="http://www.w3.org/2000/svg">
<path d="M15.6709 7.99787L23.3378 12.8448V2.94629L15.6709 7.99787Z" fill="#959AA6"/>
<path d="M0.59668 2.94629V12.8448L8.2636 7.99787L0.59668 2.94629Z" fill="#959AA6"/>
<path d="M21.9167 0.0629883H2.01741C1.30814 0.0629883 0.745275 0.591742 0.638672 1.27258L11.9671 8.73625L23.2955 1.27258C23.1889 0.591742 22.626 0.0629883 21.9167 0.0629883Z" fill="#959AA6"/>
<path d="M14.3693 8.85591L12.358 10.1806C12.2386 10.2588 12.1036 10.2972 11.9672 10.2972C11.8307 10.2972 11.6957 10.2588 11.5763 10.1806L9.56502 8.85449L0.641602 14.4988C0.751048 15.1739 1.31107 15.6984 2.0175 15.6984H21.9168C22.6232 15.6984 23.1833 15.1739 23.2927 14.4988L14.3693 8.85591Z" fill="#959AA6"/>
</svg>
