<svg width="22" height="23" viewBox="0 0 22 23" fill="none" xmlns="http://www.w3.org/2000/svg">
<path d="M20.2066 14.7309C18.9013 14.7309 17.6196 14.5268 16.4051 14.1254C15.8099 13.9224 15.0783 14.1086 14.7151 14.4817L12.3178 16.2914C9.53756 14.8073 7.82502 13.0954 6.36122 10.336L8.11768 8.0012C8.57402 7.54547 8.7377 6.87975 8.54159 6.25512C8.1385 5.03418 7.93373 3.7531 7.93373 2.44721C7.93379 1.50382 7.1663 0.736328 6.22296 0.736328H2.3075C1.36417 0.736328 0.59668 1.50382 0.59668 2.44715C0.59668 13.2602 9.39359 22.0571 20.2066 22.0571C21.15 22.0571 21.9175 21.2896 21.9175 20.3462V16.4417C21.9174 15.4984 21.1499 14.7309 20.2066 14.7309Z" fill="#959AA6"/>
</svg>
