<svg width="33" height="33" viewBox="0 0 33 33" fill="none" xmlns="http://www.w3.org/2000/svg">
<path d="M23.2405 32.1471C22.2082 32.1471 21.1846 31.9646 20.1837 31.6009C15.7741 29.9991 11.681 27.3901 8.3469 24.056C5.01276 20.7219 2.40378 16.6288 0.801986 12.2193C0.28725 10.8022 0.135346 9.33933 0.350647 7.87126C0.552332 6.49613 1.08499 5.16117 1.89111 4.01064C2.70078 2.85506 3.78023 1.89392 5.01269 1.23115C6.32699 0.524414 7.76152 0.166016 9.27656 0.166016C9.74776 0.166016 10.155 0.495245 10.2538 0.955953L11.8224 8.27625C11.8934 8.60773 11.7915 8.95264 11.5519 9.19236L8.8715 11.8727C11.4 16.8999 15.5029 21.0028 20.5301 23.5313L23.2104 20.8509C23.4501 20.6113 23.7951 20.5095 24.1265 20.5804L31.4468 22.149C31.9076 22.2478 32.2368 22.655 32.2368 23.1262C32.2368 24.6413 31.8784 26.0759 31.1716 27.3902C30.5088 28.6226 29.5477 29.7021 28.3921 30.5117C27.2416 31.3179 25.9067 31.8505 24.5315 32.0522C24.1005 32.1155 23.6697 32.147 23.2405 32.1471ZM8.47806 2.20847C6.47964 2.42908 4.70589 3.47654 3.52801 5.15767C2.20347 7.04803 1.89461 9.37312 2.68061 11.5369C5.76016 20.0144 12.3885 26.6428 20.866 29.7223C23.0297 30.5083 25.3549 30.1995 27.2452 28.8749C28.9264 27.697 29.9738 25.9233 30.1944 23.9248L24.2394 22.6488L21.4402 25.448C21.1423 25.7459 20.6897 25.825 20.3086 25.6459C14.363 22.8527 9.55026 18.0399 6.75703 12.0943C6.57795 11.7131 6.65703 11.2606 6.9549 10.9627L9.75413 8.16351L8.47806 2.20847Z" fill="#C2C1C2"/>
<path d="M31.236 17.1543C30.6841 17.1543 30.2366 16.7068 30.2366 16.1549C30.2366 8.44017 23.9602 2.16377 16.2455 2.16377C15.6936 2.16377 15.2461 1.71631 15.2461 1.16441C15.2461 0.612506 15.6936 0.165039 16.2455 0.165039C20.5166 0.165039 24.532 1.82824 27.5521 4.84832C30.5721 7.86841 32.2353 11.8838 32.2353 16.1549C32.2353 16.7068 31.7879 17.1543 31.236 17.1543Z" fill="#C2C1C2"/>
<path d="M27.2385 17.1539C26.6866 17.1539 26.2391 16.7064 26.2391 16.1545C26.2391 10.644 21.756 6.16084 16.2455 6.16084C15.6936 6.16084 15.2461 5.71338 15.2461 5.16148C15.2461 4.60958 15.6936 4.16211 16.2455 4.16211C22.8581 4.16211 28.2379 9.54189 28.2379 16.1545C28.2379 16.7064 27.7905 17.1539 27.2385 17.1539Z" fill="#C2C1C2"/>
<path d="M23.241 17.1545C22.6891 17.1545 22.2417 16.707 22.2417 16.1551C22.2417 12.8487 19.5518 10.1589 16.2455 10.1589C15.6936 10.1589 15.2461 9.71142 15.2461 9.15952C15.2461 8.60762 15.6936 8.16016 16.2455 8.16016C20.6539 8.16016 24.2404 11.7466 24.2404 16.1551C24.2404 16.707 23.793 17.1545 23.241 17.1545Z" fill="#C2C1C2"/>
</svg>
