<svg width="35" height="35" viewBox="0 0 35 35" fill="none" xmlns="http://www.w3.org/2000/svg">
<path d="M29.3743 22.2872C27.5165 20.4295 25.3053 19.0542 22.8927 18.2217C25.4767 16.442 27.1743 13.4636 27.1743 10.0957C27.1743 4.65845 22.7507 0.234863 17.3134 0.234863C11.8762 0.234863 7.45258 4.65845 7.45258 10.0957C7.45258 13.4636 9.15018 16.442 11.7342 18.2217C9.32161 19.0542 7.11038 20.4295 5.25262 22.2872C2.03105 25.5088 0.256836 29.7921 0.256836 34.348H2.92193C2.92193 26.4125 9.37791 19.9565 17.3134 19.9565C25.2489 19.9565 31.7049 26.4125 31.7049 34.348H34.37C34.37 29.7921 32.5958 25.5088 29.3743 22.2872ZM17.3134 17.2914C13.3457 17.2914 10.1177 14.0635 10.1177 10.0957C10.1177 6.12791 13.3457 2.89995 17.3134 2.89995C21.2811 2.89995 24.5092 6.12791 24.5092 10.0957C24.5092 14.0635 21.2811 17.2914 17.3134 17.2914Z" fill="#C2C1C2"/>
</svg>
